<?xml version="1.0" encoding="UTF-8" standalone="no"?>
<!DOCTYPE svg PUBLIC "-//W3C//DTD SVG 1.1//EN"
 "http://www.w3.org/Graphics/SVG/1.1/DTD/svg11.dtd">
<!-- Generated by graphviz version 2.40.1 (20161225.0304)
 -->
<!-- Title: dependency&#45;cruiser output Pages: 1 -->
<svg width="466pt" height="264pt"
 viewBox="0.00 0.00 466.00 264.00" xmlns="http://www.w3.org/2000/svg" xmlns:xlink="http://www.w3.org/1999/xlink">
<g id="graph0" class="graph" transform="scale(1 1) rotate(0) translate(4 260)">
<title>dependency&#45;cruiser output</title>
<polygon fill="#ffffff" stroke="transparent" points="-4,4 -4,-260 462,-260 462,4 -4,4"/>
<g id="clust1" class="cluster">
<title>cluster_src</title>
<path fill="#ffffff" stroke="#000000" stroke-width="2" d="M20,-8C20,-8 438,-8 438,-8 444,-8 450,-14 450,-20 450,-20 450,-236 450,-236 450,-242 444,-248 438,-248 438,-248 20,-248 20,-248 14,-248 8,-242 8,-236 8,-236 8,-20 8,-20 8,-14 14,-8 20,-8"/>
<text text-anchor="middle" x="229" y="-236.8" font-family="Helvetica,sans-Serif" font-weight="bold" font-size="9.00" fill="#000000">src</text>
</g>
<g id="clust2" class="cluster">
<title>cluster_src/components</title>
<path fill="#ffffff" stroke="#000000" stroke-width="2" d="M251,-110C251,-110 331,-110 331,-110 337,-110 343,-116 343,-122 343,-122 343,-210 343,-210 343,-216 337,-222 331,-222 331,-222 251,-222 251,-222 245,-222 239,-216 239,-210 239,-210 239,-122 239,-122 239,-116 245,-110 251,-110"/>
<text text-anchor="middle" x="291" y="-210.8" font-family="Helvetica,sans-Serif" font-weight="bold" font-size="9.00" fill="#000000">components</text>
</g>
<g id="clust3" class="cluster">
<title>cluster_src/pages</title>
<path fill="#ffffff" stroke="#000000" stroke-width="2" d="M162,-26C162,-26 219,-26 219,-26 225,-26 231,-32 231,-38 231,-38 231,-186 231,-186 231,-192 225,-198 219,-198 219,-198 162,-198 162,-198 156,-198 150,-192 150,-186 150,-186 150,-38 150,-38 150,-32 156,-26 162,-26"/>
<text text-anchor="middle" x="190.5" y="-186.8" font-family="Helvetica,sans-Serif" font-weight="bold" font-size="9.00" fill="#000000">pages</text>
</g>
<g id="clust4" class="cluster">
<title>cluster_src/redux</title>
<path fill="#ffffff" stroke="#000000" stroke-width="2" d="M268,-16C268,-16 430,-16 430,-16 436,-16 442,-22 442,-28 442,-28 442,-90 442,-90 442,-96 436,-102 430,-102 430,-102 268,-102 268,-102 262,-102 256,-96 256,-90 256,-90 256,-28 256,-28 256,-22 262,-16 268,-16"/>
<text text-anchor="middle" x="349" y="-90.8" font-family="Helvetica,sans-Serif" font-weight="bold" font-size="9.00" fill="#000000">redux</text>
</g>
<g id="clust5" class="cluster">
<title>cluster_src/redux/user</title>
<path fill="#ffffff" stroke="#000000" stroke-width="2" d="M363,-24C363,-24 422,-24 422,-24 428,-24 434,-30 434,-36 434,-36 434,-64 434,-64 434,-70 428,-76 422,-76 422,-76 363,-76 363,-76 357,-76 351,-70 351,-64 351,-64 351,-36 351,-36 351,-30 357,-24 363,-24"/>
<text text-anchor="middle" x="392.5" y="-64.8" font-family="Helvetica,sans-Serif" font-weight="bold" font-size="9.00" fill="#000000">user</text>
</g>
<!-- src/App.jsx -->
<g id="node1" class="node">
<title>src/App.jsx</title>
<g id="a_node1"><a xlink:href="src/App.jsx" xlink:title="App.jsx">
<path fill="#ffff77" stroke="#000000" d="M133.5,-127C133.5,-127 91.5,-127 91.5,-127 88.5,-127 85.5,-124 85.5,-121 85.5,-121 85.5,-115 85.5,-115 85.5,-112 88.5,-109 91.5,-109 91.5,-109 133.5,-109 133.5,-109 136.5,-109 139.5,-112 139.5,-115 139.5,-115 139.5,-121 139.5,-121 139.5,-124 136.5,-127 133.5,-127"/>
<text text-anchor="start" x="95.5" y="-115.8" font-family="Helvetica,sans-Serif" font-size="9.00" fill="#000000">App.jsx</text>
</a>
</g>
</g>
<!-- src/components/Header.jsx -->
<g id="node2" class="node">
<title>src/components/Header.jsx</title>
<g id="a_node2"><a xlink:href="src/components/Header.jsx" xlink:title="Header.jsx">
<path fill="#ffff77" stroke="#000000" d="M316.5,-196C316.5,-196 265.5,-196 265.5,-196 262.5,-196 259.5,-193 259.5,-190 259.5,-190 259.5,-184 259.5,-184 259.5,-181 262.5,-178 265.5,-178 265.5,-178 316.5,-178 316.5,-178 319.5,-178 322.5,-181 322.5,-184 322.5,-184 322.5,-190 322.5,-190 322.5,-193 319.5,-196 316.5,-196"/>
<text text-anchor="start" x="267.5" y="-184.8" font-family="Helvetica,sans-Serif" font-size="9.00" fill="#000000">Header.jsx</text>
</a>
</g>
</g>
<!-- src/App.jsx&#45;&gt;src/components/Header.jsx -->
<g id="edge1" class="edge">
<title>src/App.jsx&#45;&gt;src/components/Header.jsx</title>
<path fill="none" stroke="#000000" stroke-width="2" stroke-opacity="0.200000" d="M112.9677,-127.2834C114.5179,-146.9251 121.2014,-192.4831 150,-212 186.8513,-236.9742 241.1344,-214.7802 270.434,-199.1841"/>
<polygon fill="#000000" fill-opacity="0.200000" stroke="#000000" stroke-width="2" stroke-opacity="0.200000" points="271.6915,-200.8901 275.9483,-196.1688 269.6764,-197.205 271.6915,-200.8901"/>
</g>
<!-- src/components/PrivateRoute.jsx -->
<g id="node3" class="node">
<title>src/components/PrivateRoute.jsx</title>
<g id="a_node3"><a xlink:href="src/components/PrivateRoute.jsx" xlink:title="PrivateRoute.jsx">
<path fill="#ffff77" stroke="#000000" d="M329,-166C329,-166 253,-166 253,-166 250,-166 247,-163 247,-160 247,-160 247,-154 247,-154 247,-151 250,-148 253,-148 253,-148 329,-148 329,-148 332,-148 335,-151 335,-154 335,-154 335,-160 335,-160 335,-163 332,-166 329,-166"/>
<text text-anchor="start" x="255" y="-154.8" font-family="Helvetica,sans-Serif" font-size="9.00" fill="#000000">PrivateRoute.jsx</text>
</a>
</g>
</g>
<!-- src/App.jsx&#45;&gt;src/components/PrivateRoute.jsx -->
<g id="edge2" class="edge">
<title>src/App.jsx&#45;&gt;src/components/PrivateRoute.jsx</title>
<path fill="none" stroke="#000000" stroke-width="2" stroke-opacity="0.200000" d="M113.4603,-127.0435C115.8964,-144.8728 124.0947,-184.2776 150,-201 180.2457,-220.5243 202.3587,-222.81 231,-201 241.6373,-192.8998 229.6011,-181.5092 239,-172 239.7018,-171.29 240.4349,-170.6131 241.1955,-169.9677"/>
<polygon fill="#000000" fill-opacity="0.200000" stroke="#000000" stroke-width="2" stroke-opacity="0.200000" points="242.8966,-171.3356 246.5745,-166.1506 240.466,-167.9104 242.8966,-171.3356"/>
</g>
<!-- src/pages/About.jsx -->
<g id="node4" class="node">
<title>src/pages/About.jsx</title>
<g id="a_node4"><a xlink:href="src/pages/About.jsx" xlink:title="About.jsx">
<path fill="#ffff77" stroke="#000000" d="M214,-172C214,-172 167,-172 167,-172 164,-172 161,-169 161,-166 161,-166 161,-160 161,-160 161,-157 164,-154 167,-154 167,-154 214,-154 214,-154 217,-154 220,-157 220,-160 220,-160 220,-166 220,-166 220,-169 217,-172 214,-172"/>
<text text-anchor="start" x="169" y="-160.8" font-family="Helvetica,sans-Serif" font-size="9.00" fill="#000000">About.jsx</text>
</a>
</g>
</g>
<!-- src/App.jsx&#45;&gt;src/pages/About.jsx -->
<g id="edge3" class="edge">
<title>src/App.jsx&#45;&gt;src/pages/About.jsx</title>
<path fill="none" stroke="#000000" stroke-width="2" stroke-opacity="0.200000" d="M122.0555,-127.0816C129.2841,-133.5788 139.6949,-142.1717 150,-148 152.2027,-149.2458 154.5285,-150.4238 156.9067,-151.5303"/>
<polygon fill="#000000" fill-opacity="0.200000" stroke="#000000" stroke-width="2" stroke-opacity="0.200000" points="156.1786,-153.5038 162.5176,-153.9804 157.8594,-149.6547 156.1786,-153.5038"/>
</g>
<!-- src/pages/Home.jsx -->
<g id="node5" class="node">
<title>src/pages/Home.jsx</title>
<g id="a_node5"><a xlink:href="src/pages/Home.jsx" xlink:title="Home.jsx">
<path fill="#ffff77" stroke="#000000" d="M213.5,-142C213.5,-142 167.5,-142 167.5,-142 164.5,-142 161.5,-139 161.5,-136 161.5,-136 161.5,-130 161.5,-130 161.5,-127 164.5,-124 167.5,-124 167.5,-124 213.5,-124 213.5,-124 216.5,-124 219.5,-127 219.5,-130 219.5,-130 219.5,-136 219.5,-136 219.5,-139 216.5,-142 213.5,-142"/>
<text text-anchor="start" x="169.5" y="-130.8" font-family="Helvetica,sans-Serif" font-size="9.00" fill="#000000">Home.jsx</text>
</a>
</g>
</g>
<!-- src/App.jsx&#45;&gt;src/pages/Home.jsx -->
<g id="edge4" class="edge">
<title>src/App.jsx&#45;&gt;src/pages/Home.jsx</title>
<path fill="none" stroke="#000000" stroke-width="2" stroke-opacity="0.200000" d="M139.7806,-123.2463C144.7696,-124.2057 150.0406,-125.2194 155.2232,-126.216"/>
<polygon fill="#000000" fill-opacity="0.200000" stroke="#000000" stroke-width="2" stroke-opacity="0.200000" points="154.9555,-128.3029 161.2442,-127.3739 155.7487,-124.1785 154.9555,-128.3029"/>
</g>
<!-- src/pages/Profile.jsx -->
<g id="node6" class="node">
<title>src/pages/Profile.jsx</title>
<g id="a_node6"><a xlink:href="src/pages/Profile.jsx" xlink:title="Profile.jsx">
<path fill="#ffff77" stroke="#000000" d="M214,-112C214,-112 167,-112 167,-112 164,-112 161,-109 161,-106 161,-106 161,-100 161,-100 161,-97 164,-94 167,-94 167,-94 214,-94 214,-94 217,-94 220,-97 220,-100 220,-100 220,-106 220,-106 220,-109 217,-112 214,-112"/>
<text text-anchor="start" x="169" y="-100.8" font-family="Helvetica,sans-Serif" font-size="9.00" fill="#000000">Profile.jsx</text>
</a>
</g>
</g>
<!-- src/App.jsx&#45;&gt;src/pages/Profile.jsx -->
<g id="edge5" class="edge">
<title>src/App.jsx&#45;&gt;src/pages/Profile.jsx</title>
<path fill="none" stroke="#000000" stroke-width="2" stroke-opacity="0.200000" d="M139.7806,-112.7537C144.7064,-111.8065 149.9072,-110.8063 155.0263,-109.8219"/>
<polygon fill="#000000" fill-opacity="0.200000" stroke="#000000" stroke-width="2" stroke-opacity="0.200000" points="155.4814,-111.8729 160.9768,-108.6775 154.6881,-107.7485 155.4814,-111.8729"/>
</g>
<!-- src/pages/SignIn.jsx -->
<g id="node7" class="node">
<title>src/pages/SignIn.jsx</title>
<g id="a_node7"><a xlink:href="src/pages/SignIn.jsx" xlink:title="SignIn.jsx">
<path fill="#ffff77" stroke="#000000" d="M215,-52C215,-52 166,-52 166,-52 163,-52 160,-49 160,-46 160,-46 160,-40 160,-40 160,-37 163,-34 166,-34 166,-34 215,-34 215,-34 218,-34 221,-37 221,-40 221,-40 221,-46 221,-46 221,-49 218,-52 215,-52"/>
<text text-anchor="start" x="168" y="-40.8" font-family="Helvetica,sans-Serif" font-size="9.00" fill="#000000">SignIn.jsx</text>
</a>
</g>
</g>
<!-- src/App.jsx&#45;&gt;src/pages/SignIn.jsx -->
<g id="edge6" class="edge">
<title>src/App.jsx&#45;&gt;src/pages/SignIn.jsx</title>
<path fill="none" stroke="#000000" stroke-width="2" stroke-opacity="0.200000" d="M118.4014,-108.652C124.3741,-99.1782 133.8634,-84.0917 142,-71 145.5811,-65.238 144.7545,-62.3022 150,-58 151.3588,-56.8856 152.8082,-55.8494 154.3204,-54.8867"/>
<polygon fill="#000000" fill-opacity="0.200000" stroke="#000000" stroke-width="2" stroke-opacity="0.200000" points="155.4579,-56.6564 159.6623,-51.8885 153.4023,-52.9938 155.4579,-56.6564"/>
</g>
<!-- src/pages/SignUp.jsx -->
<g id="node8" class="node">
<title>src/pages/SignUp.jsx</title>
<g id="a_node8"><a xlink:href="src/pages/SignUp.jsx" xlink:title="SignUp.jsx">
<path fill="#ffff77" stroke="#000000" d="M217,-82C217,-82 164,-82 164,-82 161,-82 158,-79 158,-76 158,-76 158,-70 158,-70 158,-67 161,-64 164,-64 164,-64 217,-64 217,-64 220,-64 223,-67 223,-70 223,-70 223,-76 223,-76 223,-79 220,-82 217,-82"/>
<text text-anchor="start" x="166" y="-70.8" font-family="Helvetica,sans-Serif" font-size="9.00" fill="#000000">SignUp.jsx</text>
</a>
</g>
</g>
<!-- src/App.jsx&#45;&gt;src/pages/SignUp.jsx -->
<g id="edge7" class="edge">
<title>src/App.jsx&#45;&gt;src/pages/SignUp.jsx</title>
<path fill="none" stroke="#000000" stroke-width="2" stroke-opacity="0.200000" d="M122.0555,-108.9184C129.2841,-102.4212 139.6949,-93.8283 150,-88 152.2027,-86.7542 154.5285,-85.5762 156.9067,-84.4697"/>
<polygon fill="#000000" fill-opacity="0.200000" stroke="#000000" stroke-width="2" stroke-opacity="0.200000" points="157.8594,-86.3453 162.5176,-82.0196 156.1786,-82.4962 157.8594,-86.3453"/>
</g>
<!-- src/components/OAuth.jsx -->
<g id="node9" class="node">
<title>src/components/OAuth.jsx</title>
<g id="a_node9"><a xlink:href="src/components/OAuth.jsx" xlink:title="OAuth.jsx">
<path fill="#ffff77" stroke="#000000" d="M315,-136C315,-136 267,-136 267,-136 264,-136 261,-133 261,-130 261,-130 261,-124 261,-124 261,-121 264,-118 267,-118 267,-118 315,-118 315,-118 318,-118 321,-121 321,-124 321,-124 321,-130 321,-130 321,-133 318,-136 315,-136"/>
<text text-anchor="start" x="269" y="-124.8" font-family="Helvetica,sans-Serif" font-size="9.00" fill="#000000">OAuth.jsx</text>
</a>
</g>
</g>
<!-- src/pages/SignIn.jsx&#45;&gt;src/components/OAuth.jsx -->
<g id="edge13" class="edge">
<title>src/pages/SignIn.jsx&#45;&gt;src/components/OAuth.jsx</title>
<path fill="none" stroke="#000000" stroke-width="2" stroke-opacity="0.200000" d="M220.556,-52.1709C224.2175,-53.8474 227.7928,-55.7828 231,-58 252.399,-72.7936 270.9879,-96.9218 281.5957,-112.3718"/>
<polygon fill="#000000" fill-opacity="0.200000" stroke="#000000" stroke-width="2" stroke-opacity="0.200000" points="280.0442,-113.8282 285.1331,-117.6378 283.5306,-111.4862 280.0442,-113.8282"/>
</g>
<!-- src/redux/user/userSlice.js -->
<g id="node11" class="node">
<title>src/redux/user/userSlice.js</title>
<g id="a_node11"><a xlink:href="src/redux/user/userSlice.js" xlink:title="userSlice.js">
<path fill="#ffffcc" stroke="#000000" d="M420,-50C420,-50 365,-50 365,-50 362,-50 359,-47 359,-44 359,-44 359,-38 359,-38 359,-35 362,-32 365,-32 365,-32 420,-32 420,-32 423,-32 426,-35 426,-38 426,-38 426,-44 426,-44 426,-47 423,-50 420,-50"/>
<text text-anchor="start" x="367" y="-38.8" font-family="Helvetica,sans-Serif" font-size="9.00" fill="#000000">userSlice.js</text>
</a>
</g>
</g>
<!-- src/pages/SignIn.jsx&#45;&gt;src/redux/user/userSlice.js -->
<g id="edge14" class="edge">
<title>src/pages/SignIn.jsx&#45;&gt;src/redux/user/userSlice.js</title>
<path fill="none" stroke="#000000" stroke-width="2" stroke-opacity="0.200000" d="M221.2163,-48.1105C227.1031,-48.8977 233.2298,-49.5857 239,-50 285.1036,-53.3099 296.9645,-54.151 343,-50 346.2079,-49.7107 349.5187,-49.3181 352.8361,-48.8578"/>
<polygon fill="#000000" fill-opacity="0.200000" stroke="#000000" stroke-width="2" stroke-opacity="0.200000" points="353.172,-50.931 358.7941,-47.964 352.5489,-46.7775 353.172,-50.931"/>
</g>
<!-- src/pages/SignUp.jsx&#45;&gt;src/components/OAuth.jsx -->
<g id="edge15" class="edge">
<title>src/pages/SignUp.jsx&#45;&gt;src/components/OAuth.jsx</title>
<path fill="none" stroke="#000000" stroke-width="2" stroke-opacity="0.200000" d="M217.4358,-82.0211C222.0367,-83.8312 226.712,-85.8458 231,-88 246.0185,-95.5448 261.9192,-106.0064 273.5759,-114.1952"/>
<polygon fill="#000000" fill-opacity="0.200000" stroke="#000000" stroke-width="2" stroke-opacity="0.200000" points="272.508,-116.0127 278.6146,-117.7791 274.9424,-112.5901 272.508,-116.0127"/>
</g>
<!-- src/firebase.js -->
<g id="node10" class="node">
<title>src/firebase.js</title>
<g id="a_node10"><a xlink:href="src/firebase.js" xlink:title="firebase.js">
<path fill="#ffffcc" stroke="#000000" d="M417.5,-136C417.5,-136 367.5,-136 367.5,-136 364.5,-136 361.5,-133 361.5,-130 361.5,-130 361.5,-124 361.5,-124 361.5,-121 364.5,-118 367.5,-118 367.5,-118 417.5,-118 417.5,-118 420.5,-118 423.5,-121 423.5,-124 423.5,-124 423.5,-130 423.5,-130 423.5,-133 420.5,-136 417.5,-136"/>
<text text-anchor="start" x="369.5" y="-124.8" font-family="Helvetica,sans-Serif" font-size="9.00" fill="#000000">firebase.js</text>
</a>
</g>
</g>
<!-- src/components/OAuth.jsx&#45;&gt;src/firebase.js -->
<g id="edge8" class="edge">
<title>src/components/OAuth.jsx&#45;&gt;src/firebase.js</title>
<path fill="none" stroke="#000000" stroke-width="2" stroke-opacity="0.200000" d="M321.1785,-127C331.8286,-127 343.9335,-127 355.1082,-127"/>
<polygon fill="#000000" fill-opacity="0.200000" stroke="#000000" stroke-width="2" stroke-opacity="0.200000" points="355.2055,-129.1001 361.2055,-127 355.2054,-124.9001 355.2055,-129.1001"/>
</g>
<!-- src/components/OAuth.jsx&#45;&gt;src/redux/user/userSlice.js -->
<g id="edge9" class="edge">
<title>src/components/OAuth.jsx&#45;&gt;src/redux/user/userSlice.js</title>
<path fill="none" stroke="#000000" stroke-width="2" stroke-opacity="0.200000" d="M296.0383,-117.9338C305.0562,-102.5287 325.4275,-71.241 351,-54 351.7434,-53.4988 352.5071,-53.0161 353.2877,-52.5513"/>
<polygon fill="#000000" fill-opacity="0.200000" stroke="#000000" stroke-width="2" stroke-opacity="0.200000" points="354.3115,-54.3857 358.6469,-49.7366 352.3585,-50.6674 354.3115,-54.3857"/>
</g>
<!-- src/index.css -->
<g id="node12" class="node">
<title>src/index.css</title>
<g id="a_node12"><a xlink:href="src/index.css" xlink:title="index.css">
<path fill="#ffffcc" stroke="#000000" d="M136,-65C136,-65 89,-65 89,-65 86,-65 83,-62 83,-59 83,-59 83,-53 83,-53 83,-50 86,-47 89,-47 89,-47 136,-47 136,-47 139,-47 142,-50 142,-53 142,-53 142,-59 142,-59 142,-62 139,-65 136,-65"/>
<text text-anchor="start" x="91" y="-53.8" font-family="Helvetica,sans-Serif" font-size="9.00" fill="#000000">index.css</text>
</a>
</g>
</g>
<!-- src/main.jsx -->
<g id="node13" class="node">
<title>src/main.jsx</title>
<g id="a_node13"><a xlink:href="src/main.jsx" xlink:title="main.jsx">
<path fill="#ffff77" stroke="#000000" d="M64,-65C64,-65 22,-65 22,-65 19,-65 16,-62 16,-59 16,-59 16,-53 16,-53 16,-50 19,-47 22,-47 22,-47 64,-47 64,-47 67,-47 70,-50 70,-53 70,-53 70,-59 70,-59 70,-62 67,-65 64,-65"/>
<text text-anchor="start" x="24" y="-53.8" font-family="Helvetica,sans-Serif" font-size="9.00" fill="#000000">main.jsx</text>
</a>
</g>
</g>
<!-- src/main.jsx&#45;&gt;src/App.jsx -->
<g id="edge10" class="edge">
<title>src/main.jsx&#45;&gt;src/App.jsx</title>
<path fill="none" stroke="#000000" stroke-width="2" stroke-opacity="0.200000" d="M53.255,-65.1483C64.9579,-75.5883 84.2022,-92.7559 97.5691,-104.6803"/>
<polygon fill="#000000" fill-opacity="0.200000" stroke="#000000" stroke-width="2" stroke-opacity="0.200000" points="96.3276,-106.387 102.203,-108.8142 99.1236,-103.2529 96.3276,-106.387"/>
</g>
<!-- src/main.jsx&#45;&gt;src/index.css -->
<g id="edge11" class="edge">
<title>src/main.jsx&#45;&gt;src/index.css</title>
<path fill="none" stroke="#000000" stroke-width="2" stroke-opacity="0.200000" d="M70.0695,-56C72.1277,-56 74.2237,-56 76.3267,-56"/>
<polygon fill="#000000" fill-opacity="0.200000" stroke="#000000" stroke-width="2" stroke-opacity="0.200000" points="76.6256,-58.1001 82.6256,-56 76.6255,-53.9001 76.6256,-58.1001"/>
</g>
<!-- src/redux/store.js -->
<g id="node14" class="node">
<title>src/redux/store.js</title>
<g id="a_node14"><a xlink:href="src/redux/store.js" xlink:title="store.js">
<path fill="#ffffcc" stroke="#000000" d="M312,-42C312,-42 270,-42 270,-42 267,-42 264,-39 264,-36 264,-36 264,-30 264,-30 264,-27 267,-24 270,-24 270,-24 312,-24 312,-24 315,-24 318,-27 318,-30 318,-30 318,-36 318,-36 318,-39 315,-42 312,-42"/>
<text text-anchor="start" x="274.5" y="-30.8" font-family="Helvetica,sans-Serif" font-size="9.00" fill="#000000">store.js</text>
</a>
</g>
</g>
<!-- src/main.jsx&#45;&gt;src/redux/store.js -->
<g id="edge12" class="edge">
<title>src/main.jsx&#45;&gt;src/redux/store.js</title>
<path fill="none" stroke="#000000" stroke-width="2" stroke-opacity="0.200000" d="M66.1338,-46.8935C71.6268,-44.8514 77.4918,-42.7682 83,-41 112.3582,-31.5759 119.4314,-27.0347 150,-23 185.6905,-18.2893 195.1227,-20.0307 231,-23 239.8076,-23.7289 249.2687,-25.05 258.0148,-26.498"/>
<polygon fill="#000000" fill-opacity="0.200000" stroke="#000000" stroke-width="2" stroke-opacity="0.200000" points="257.6699,-28.5695 263.9387,-27.5152 258.3806,-24.43 257.6699,-28.5695"/>
</g>
<!-- src/redux/store.js&#45;&gt;src/redux/user/userSlice.js -->
<g id="edge16" class="edge">
<title>src/redux/store.js&#45;&gt;src/redux/user/userSlice.js</title>
<path fill="none" stroke="#000000" stroke-width="2" stroke-opacity="0.200000" d="M318.2001,-35.1439C328.704,-35.9717 340.9372,-36.9359 352.4094,-37.8402"/>
<polygon fill="#000000" fill-opacity="0.200000" stroke="#000000" stroke-width="2" stroke-opacity="0.200000" points="352.5423,-39.957 358.6887,-38.3351 352.8723,-35.77 352.5423,-39.957"/>
</g>
</g>
</svg>
