<?xml version="1.0" encoding="UTF-8" standalone="no"?>
<!DOCTYPE svg PUBLIC "-//W3C//DTD SVG 1.1//EN"
 "http://www.w3.org/Graphics/SVG/1.1/DTD/svg11.dtd">
<!-- Generated by graphviz version 2.40.1 (20161225.0304)
 -->
<!-- Title: dependency&#45;cruiser output Pages: 1 -->
<svg width="511pt" height="368pt"
 viewBox="0.00 0.00 511.00 367.53" xmlns="http://www.w3.org/2000/svg" xmlns:xlink="http://www.w3.org/1999/xlink">
<g id="graph0" class="graph" transform="scale(1 1) rotate(0) translate(4 363.5317)">
<title>dependency&#45;cruiser output</title>
<polygon fill="#ffffff" stroke="transparent" points="-4,4 -4,-363.5317 507,-363.5317 507,4 -4,4"/>
<g id="clust1" class="cluster">
<title>cluster_api</title>
<path fill="#ffffff" stroke="#000000" stroke-width="2" d="M20,-205.5317C20,-205.5317 380,-205.5317 380,-205.5317 386,-205.5317 392,-211.5317 392,-217.5317 392,-217.5317 392,-339.5317 392,-339.5317 392,-345.5317 386,-351.5317 380,-351.5317 380,-351.5317 20,-351.5317 20,-351.5317 14,-351.5317 8,-345.5317 8,-339.5317 8,-339.5317 8,-217.5317 8,-217.5317 8,-211.5317 14,-205.5317 20,-205.5317"/>
<text text-anchor="middle" x="200" y="-340.3317" font-family="Helvetica,sans-Serif" font-weight="bold" font-size="9.00" fill="#000000">api</text>
</g>
<g id="clust2" class="cluster">
<title>cluster_api/controllers</title>
<path fill="#ffffff" stroke="#000000" stroke-width="2" d="M188,-213.5317C188,-213.5317 272,-213.5317 272,-213.5317 278,-213.5317 284,-219.5317 284,-225.5317 284,-225.5317 284,-283.5317 284,-283.5317 284,-289.5317 278,-295.5317 272,-295.5317 272,-295.5317 188,-295.5317 188,-295.5317 182,-295.5317 176,-289.5317 176,-283.5317 176,-283.5317 176,-225.5317 176,-225.5317 176,-219.5317 182,-213.5317 188,-213.5317"/>
<text text-anchor="middle" x="230" y="-284.3317" font-family="Helvetica,sans-Serif" font-weight="bold" font-size="9.00" fill="#000000">controllers</text>
</g>
<g id="clust3" class="cluster">
<title>cluster_api/models</title>
<path fill="#ffffff" stroke="#000000" stroke-width="2" d="M304,-213.5317C304,-213.5317 372,-213.5317 372,-213.5317 378,-213.5317 384,-219.5317 384,-225.5317 384,-225.5317 384,-253.5317 384,-253.5317 384,-259.5317 378,-265.5317 372,-265.5317 372,-265.5317 304,-265.5317 304,-265.5317 298,-265.5317 292,-259.5317 292,-253.5317 292,-253.5317 292,-225.5317 292,-225.5317 292,-219.5317 298,-213.5317 304,-213.5317"/>
<text text-anchor="middle" x="338" y="-254.3317" font-family="Helvetica,sans-Serif" font-weight="bold" font-size="9.00" fill="#000000">models</text>
</g>
<g id="clust4" class="cluster">
<title>cluster_api/routes</title>
<path fill="#ffffff" stroke="#000000" stroke-width="2" d="M90,-213.5317C90,-213.5317 156,-213.5317 156,-213.5317 162,-213.5317 168,-219.5317 168,-225.5317 168,-225.5317 168,-283.5317 168,-283.5317 168,-289.5317 162,-295.5317 156,-295.5317 156,-295.5317 90,-295.5317 90,-295.5317 84,-295.5317 78,-289.5317 78,-283.5317 78,-283.5317 78,-225.5317 78,-225.5317 78,-219.5317 84,-213.5317 90,-213.5317"/>
<text text-anchor="middle" x="123" y="-284.3317" font-family="Helvetica,sans-Serif" font-weight="bold" font-size="9.00" fill="#000000">routes</text>
</g>
<g id="clust5" class="cluster">
<title>cluster_api/utils</title>
<path fill="#ffffff" stroke="#000000" stroke-width="2" d="M315,-273.5317C315,-273.5317 361,-273.5317 361,-273.5317 367,-273.5317 373,-279.5317 373,-285.5317 373,-285.5317 373,-313.5317 373,-313.5317 373,-319.5317 367,-325.5317 361,-325.5317 361,-325.5317 315,-325.5317 315,-325.5317 309,-325.5317 303,-319.5317 303,-313.5317 303,-313.5317 303,-285.5317 303,-285.5317 303,-279.5317 309,-273.5317 315,-273.5317"/>
<text text-anchor="middle" x="338" y="-314.3317" font-family="Helvetica,sans-Serif" font-weight="bold" font-size="9.00" fill="#000000">utils</text>
</g>
<g id="clust6" class="cluster">
<title>cluster_node_modules</title>
<path fill="#ffffff" stroke="#000000" stroke-width="2" d="M412,-31.5317C412,-31.5317 483,-31.5317 483,-31.5317 489,-31.5317 495,-37.5317 495,-43.5317 495,-43.5317 495,-221.5317 495,-221.5317 495,-227.5317 489,-233.5317 483,-233.5317 483,-233.5317 412,-233.5317 412,-233.5317 406,-233.5317 400,-227.5317 400,-221.5317 400,-221.5317 400,-43.5317 400,-43.5317 400,-37.5317 406,-31.5317 412,-31.5317"/>
<text text-anchor="middle" x="447.5" y="-222.3317" font-family="Helvetica,sans-Serif" font-weight="bold" font-size="9.00" fill="#000000">node_modules</text>
</g>
<!-- api/controllers/auth.controller.js -->
<g id="node1" class="node">
<title>api/controllers/auth.controller.js</title>
<g id="a_node1"><a xlink:href="api/controllers/auth.controller.js" xlink:title="auth.controller.js">
<path fill="#ffffcc" stroke="#000000" d="M270,-269.5317C270,-269.5317 190,-269.5317 190,-269.5317 187,-269.5317 184,-266.5317 184,-263.5317 184,-263.5317 184,-257.5317 184,-257.5317 184,-254.5317 187,-251.5317 190,-251.5317 190,-251.5317 270,-251.5317 270,-251.5317 273,-251.5317 276,-254.5317 276,-257.5317 276,-257.5317 276,-263.5317 276,-263.5317 276,-266.5317 273,-269.5317 270,-269.5317"/>
<text text-anchor="start" x="192" y="-258.3317" font-family="Helvetica,sans-Serif" font-size="9.00" fill="#000000">auth.controller.js</text>
</a>
</g>
</g>
<!-- api/models/user.model.js -->
<g id="node2" class="node">
<title>api/models/user.model.js</title>
<g id="a_node2"><a xlink:href="api/models/user.model.js" xlink:title="user.model.js">
<path fill="#ffffcc" stroke="#000000" d="M370,-239.5317C370,-239.5317 306,-239.5317 306,-239.5317 303,-239.5317 300,-236.5317 300,-233.5317 300,-233.5317 300,-227.5317 300,-227.5317 300,-224.5317 303,-221.5317 306,-221.5317 306,-221.5317 370,-221.5317 370,-221.5317 373,-221.5317 376,-224.5317 376,-227.5317 376,-227.5317 376,-233.5317 376,-233.5317 376,-236.5317 373,-239.5317 370,-239.5317"/>
<text text-anchor="start" x="308" y="-228.3317" font-family="Helvetica,sans-Serif" font-size="9.00" fill="#000000">user.model.js</text>
</a>
</g>
</g>
<!-- api/controllers/auth.controller.js&#45;&gt;api/models/user.model.js -->
<g id="edge1" class="edge">
<title>api/controllers/auth.controller.js&#45;&gt;api/models/user.model.js</title>
<path fill="none" stroke="#000000" stroke-width="2" stroke-opacity="0.200000" d="M262.4036,-251.5307C274.0438,-248.2973 287.2869,-244.6186 299.4015,-241.2535"/>
<polygon fill="#000000" fill-opacity="0.200000" stroke="#000000" stroke-width="2" stroke-opacity="0.200000" points="300.027,-243.2593 305.246,-239.63 298.9028,-239.2125 300.027,-243.2593"/>
</g>
<!-- api/utils/error.js -->
<g id="node3" class="node">
<title>api/utils/error.js</title>
<g id="a_node3"><a xlink:href="api/utils/error.js" xlink:title="error.js">
<path fill="#ffffcc" stroke="#000000" d="M359,-299.5317C359,-299.5317 317,-299.5317 317,-299.5317 314,-299.5317 311,-296.5317 311,-293.5317 311,-293.5317 311,-287.5317 311,-287.5317 311,-284.5317 314,-281.5317 317,-281.5317 317,-281.5317 359,-281.5317 359,-281.5317 362,-281.5317 365,-284.5317 365,-287.5317 365,-287.5317 365,-293.5317 365,-293.5317 365,-296.5317 362,-299.5317 359,-299.5317"/>
<text text-anchor="start" x="322.5" y="-288.3317" font-family="Helvetica,sans-Serif" font-size="9.00" fill="#000000">error.js</text>
</a>
</g>
</g>
<!-- api/controllers/auth.controller.js&#45;&gt;api/utils/error.js -->
<g id="edge2" class="edge">
<title>api/controllers/auth.controller.js&#45;&gt;api/utils/error.js</title>
<path fill="none" stroke="#000000" stroke-width="2" stroke-opacity="0.200000" d="M262.4036,-269.5326C275.766,-273.2444 291.2409,-277.543 304.6958,-281.2805"/>
<polygon fill="#000000" fill-opacity="0.200000" stroke="#000000" stroke-width="2" stroke-opacity="0.200000" points="304.3777,-283.3716 310.7209,-282.9541 305.5018,-279.3248 304.3777,-283.3716"/>
</g>
<!-- node_modules/bcryptjs -->
<g id="node4" class="node">
<title>node_modules/bcryptjs</title>
<g id="a_node4"><a xlink:href="https://www.npmjs.com/package/bcryptjs" xlink:title="bcryptjs">
<polygon fill="#c40b0a" fill-opacity="0.101961" stroke="#000000" points="474.5,-207.5317 422.5,-207.5317 420.5,-205.5317 420.5,-189.5317 472.5,-189.5317 474.5,-191.5317 474.5,-207.5317"/>
<polyline fill="none" stroke="#000000" points="472.5,-205.5317 420.5,-205.5317 "/>
<polyline fill="none" stroke="#000000" points="472.5,-205.5317 472.5,-189.5317 "/>
<polyline fill="none" stroke="#000000" points="472.5,-205.5317 474.5,-207.5317 "/>
<text text-anchor="start" x="429" y="-196.3317" font-family="Helvetica,sans-Serif" font-size="9.00" fill="#c40b0a">bcryptjs</text>
</a>
</g>
</g>
<!-- api/controllers/auth.controller.js&#45;&gt;node_modules/bcryptjs -->
<g id="edge3" class="edge">
<title>api/controllers/auth.controller.js&#45;&gt;node_modules/bcryptjs</title>
<path fill="none" stroke="#000000" stroke-opacity="0.200000" d="M276.2414,-251.6531C279.0852,-249.9461 281.7155,-247.9243 284,-245.5317 295.0193,-233.9907 279.9152,-220.9516 292,-210.5317 325.3977,-181.7351 379.2369,-184.7217 413.9913,-190.7063"/>
<polygon fill="#000000" fill-opacity="0.200000" stroke="#000000" stroke-opacity="0.200000" points="413.9693,-192.8371 420.2494,-191.8517 414.7255,-188.7057 413.9693,-192.8371"/>
</g>
<!-- node_modules/jsonwebtoken -->
<g id="node5" class="node">
<title>node_modules/jsonwebtoken</title>
<g id="a_node5"><a xlink:href="https://www.npmjs.com/package/jsonwebtoken" xlink:title="jsonwebtoken">
<polygon fill="#c40b0a" fill-opacity="0.101961" stroke="#000000" points="487,-177.5317 410,-177.5317 408,-175.5317 408,-159.5317 485,-159.5317 487,-161.5317 487,-177.5317"/>
<polyline fill="none" stroke="#000000" points="485,-175.5317 408,-175.5317 "/>
<polyline fill="none" stroke="#000000" points="485,-175.5317 485,-159.5317 "/>
<polyline fill="none" stroke="#000000" points="485,-175.5317 487,-177.5317 "/>
<text text-anchor="start" x="416" y="-166.3317" font-family="Helvetica,sans-Serif" font-size="9.00" fill="#c40b0a">jsonwebtoken</text>
</a>
</g>
</g>
<!-- api/controllers/auth.controller.js&#45;&gt;node_modules/jsonwebtoken -->
<g id="edge4" class="edge">
<title>api/controllers/auth.controller.js&#45;&gt;node_modules/jsonwebtoken</title>
<path fill="none" stroke="#000000" stroke-opacity="0.200000" d="M276.014,-252.2028C278.9892,-250.3779 281.7059,-248.1787 284,-245.5317 302.1965,-224.5355 272.0404,-202.8595 292,-183.5317 320.3388,-156.0898 366.6712,-154.9883 401.4032,-159.1547"/>
<polygon fill="#000000" fill-opacity="0.200000" stroke="#000000" stroke-opacity="0.200000" points="401.5238,-161.2886 407.7464,-159.9888 402.0715,-157.1244 401.5238,-161.2886"/>
</g>
<!-- node_modules/mongoose -->
<g id="node13" class="node">
<title>node_modules/mongoose</title>
<g id="a_node13"><a xlink:href="https://www.npmjs.com/package/mongoose" xlink:title="mongoose">
<polygon fill="#c40b0a" fill-opacity="0.101961" stroke="#000000" points="479,-147.5317 418,-147.5317 416,-145.5317 416,-129.5317 477,-129.5317 479,-131.5317 479,-147.5317"/>
<polyline fill="none" stroke="#000000" points="477,-145.5317 416,-145.5317 "/>
<polyline fill="none" stroke="#000000" points="477,-145.5317 477,-129.5317 "/>
<polyline fill="none" stroke="#000000" points="477,-145.5317 479,-147.5317 "/>
<text text-anchor="start" x="424" y="-136.3317" font-family="Helvetica,sans-Serif" font-size="9.00" fill="#c40b0a">mongoose</text>
</a>
</g>
</g>
<!-- api/models/user.model.js&#45;&gt;node_modules/mongoose -->
<g id="edge11" class="edge">
<title>api/models/user.model.js&#45;&gt;node_modules/mongoose</title>
<path fill="none" stroke="#000000" stroke-opacity="0.200000" d="M342.8691,-221.4849C351.9645,-205.4321 373.0749,-171.9279 400,-153.5317 403.0927,-151.4186 406.4986,-149.5912 410.0232,-148.0132"/>
<polygon fill="#000000" fill-opacity="0.200000" stroke="#000000" stroke-opacity="0.200000" points="410.8638,-149.9385 415.6315,-145.7338 409.2823,-146.0476 410.8638,-149.9385"/>
</g>
<!-- api/controllers/user.controller.js -->
<g id="node6" class="node">
<title>api/controllers/user.controller.js</title>
<g id="a_node6"><a xlink:href="api/controllers/user.controller.js" xlink:title="user.controller.js">
<path fill="#ffffcc" stroke="#000000" d="M269,-239.5317C269,-239.5317 191,-239.5317 191,-239.5317 188,-239.5317 185,-236.5317 185,-233.5317 185,-233.5317 185,-227.5317 185,-227.5317 185,-224.5317 188,-221.5317 191,-221.5317 191,-221.5317 269,-221.5317 269,-221.5317 272,-221.5317 275,-224.5317 275,-227.5317 275,-227.5317 275,-233.5317 275,-233.5317 275,-236.5317 272,-239.5317 269,-239.5317"/>
<text text-anchor="start" x="193" y="-228.3317" font-family="Helvetica,sans-Serif" font-size="9.00" fill="#000000">user.controller.js</text>
</a>
</g>
</g>
<!-- api/index.js -->
<g id="node7" class="node">
<title>api/index.js</title>
<g id="a_node7"><a xlink:href="api/index.js" xlink:title="index.js">
<path fill="#ffffcc" stroke="#000000" d="M64,-231.5317C64,-231.5317 22,-231.5317 22,-231.5317 19,-231.5317 16,-228.5317 16,-225.5317 16,-225.5317 16,-219.5317 16,-219.5317 16,-216.5317 19,-213.5317 22,-213.5317 22,-213.5317 64,-213.5317 64,-213.5317 67,-213.5317 70,-216.5317 70,-219.5317 70,-219.5317 70,-225.5317 70,-225.5317 70,-228.5317 67,-231.5317 64,-231.5317"/>
<text text-anchor="start" x="25.5" y="-220.3317" font-family="Helvetica,sans-Serif" font-size="9.00" fill="#000000">index.js</text>
</a>
</g>
</g>
<!-- api/routes/auth.route.js -->
<g id="node8" class="node">
<title>api/routes/auth.route.js</title>
<g id="a_node8"><a xlink:href="api/routes/auth.route.js" xlink:title="auth.route.js">
<path fill="#ffffcc" stroke="#000000" d="M154,-269.5317C154,-269.5317 92,-269.5317 92,-269.5317 89,-269.5317 86,-266.5317 86,-263.5317 86,-263.5317 86,-257.5317 86,-257.5317 86,-254.5317 89,-251.5317 92,-251.5317 92,-251.5317 154,-251.5317 154,-251.5317 157,-251.5317 160,-254.5317 160,-257.5317 160,-257.5317 160,-263.5317 160,-263.5317 160,-266.5317 157,-269.5317 154,-269.5317"/>
<text text-anchor="start" x="94" y="-258.3317" font-family="Helvetica,sans-Serif" font-size="9.00" fill="#000000">auth.route.js</text>
</a>
</g>
</g>
<!-- api/index.js&#45;&gt;api/routes/auth.route.js -->
<g id="edge5" class="edge">
<title>api/index.js&#45;&gt;api/routes/auth.route.js</title>
<path fill="none" stroke="#000000" stroke-width="2" stroke-opacity="0.200000" d="M55.1691,-231.6579C61.6955,-236.2557 70.0186,-241.6608 78,-245.5317 80.6397,-246.8119 83.4161,-248.0263 86.2402,-249.1683"/>
<polygon fill="#000000" fill-opacity="0.200000" stroke="#000000" stroke-width="2" stroke-opacity="0.200000" points="85.7211,-251.2185 92.0752,-251.409 87.2268,-247.2976 85.7211,-251.2185"/>
</g>
<!-- api/routes/user.route.js -->
<g id="node9" class="node">
<title>api/routes/user.route.js</title>
<g id="a_node9"><a xlink:href="api/routes/user.route.js" xlink:title="user.route.js">
<path fill="#ffffcc" stroke="#000000" d="M153,-239.5317C153,-239.5317 93,-239.5317 93,-239.5317 90,-239.5317 87,-236.5317 87,-233.5317 87,-233.5317 87,-227.5317 87,-227.5317 87,-224.5317 90,-221.5317 93,-221.5317 93,-221.5317 153,-221.5317 153,-221.5317 156,-221.5317 159,-224.5317 159,-227.5317 159,-227.5317 159,-233.5317 159,-233.5317 159,-236.5317 156,-239.5317 153,-239.5317"/>
<text text-anchor="start" x="95" y="-228.3317" font-family="Helvetica,sans-Serif" font-size="9.00" fill="#000000">user.route.js</text>
</a>
</g>
</g>
<!-- api/index.js&#45;&gt;api/routes/user.route.js -->
<g id="edge6" class="edge">
<title>api/index.js&#45;&gt;api/routes/user.route.js</title>
<path fill="none" stroke="#000000" stroke-width="2" stroke-opacity="0.200000" d="M70.0844,-225.2401C73.511,-225.5827 77.0792,-225.9396 80.6726,-226.2989"/>
<polygon fill="#000000" fill-opacity="0.200000" stroke="#000000" stroke-width="2" stroke-opacity="0.200000" points="80.544,-228.3964 86.7232,-226.904 80.962,-224.2173 80.544,-228.3964"/>
</g>
<!-- node_modules/cors -->
<g id="node10" class="node">
<title>node_modules/cors</title>
<g id="a_node10"><a xlink:href="https://www.npmjs.com/package/cors" xlink:title="cors">
<polygon fill="#c40b0a" fill-opacity="0.101961" stroke="#000000" points="474.5,-87.5317 422.5,-87.5317 420.5,-85.5317 420.5,-69.5317 472.5,-69.5317 474.5,-71.5317 474.5,-87.5317"/>
<polyline fill="none" stroke="#000000" points="472.5,-85.5317 420.5,-85.5317 "/>
<polyline fill="none" stroke="#000000" points="472.5,-85.5317 472.5,-69.5317 "/>
<polyline fill="none" stroke="#000000" points="472.5,-85.5317 474.5,-87.5317 "/>
<text text-anchor="start" x="438" y="-76.3317" font-family="Helvetica,sans-Serif" font-size="9.00" fill="#c40b0a">cors</text>
</a>
</g>
</g>
<!-- api/index.js&#45;&gt;node_modules/cors -->
<g id="edge7" class="edge">
<title>api/index.js&#45;&gt;node_modules/cors</title>
<path fill="none" stroke="#000000" stroke-opacity="0.200000" d="M43.9877,-213.452C47.2495,-185.1593 58.5891,-99.358 78,-80.5317 131.646,-28.501 356.2503,-51.0923 392,-59.5317 395.8689,-60.445 396.3154,-62.0396 400,-63.5317 404.5088,-65.3575 409.3295,-67.1051 414.1073,-68.7208"/>
<polygon fill="#000000" fill-opacity="0.200000" stroke="#000000" stroke-opacity="0.200000" points="413.7539,-70.8151 420.1096,-70.6927 415.0648,-66.8249 413.7539,-70.8151"/>
</g>
<!-- node_modules/dotenv -->
<g id="node11" class="node">
<title>node_modules/dotenv</title>
<g id="a_node11"><a xlink:href="https://www.npmjs.com/package/dotenv" xlink:title="dotenv">
<polygon fill="#c40b0a" fill-opacity="0.101961" stroke="#000000" points="474.5,-57.5317 422.5,-57.5317 420.5,-55.5317 420.5,-39.5317 472.5,-39.5317 474.5,-41.5317 474.5,-57.5317"/>
<polyline fill="none" stroke="#000000" points="472.5,-55.5317 420.5,-55.5317 "/>
<polyline fill="none" stroke="#000000" points="472.5,-55.5317 472.5,-39.5317 "/>
<polyline fill="none" stroke="#000000" points="472.5,-55.5317 474.5,-57.5317 "/>
<text text-anchor="start" x="431.5" y="-46.3317" font-family="Helvetica,sans-Serif" font-size="9.00" fill="#c40b0a">dotenv</text>
</a>
</g>
</g>
<!-- api/index.js&#45;&gt;node_modules/dotenv -->
<g id="edge8" class="edge">
<title>api/index.js&#45;&gt;node_modules/dotenv</title>
<path fill="none" stroke="#000000" stroke-opacity="0.200000" d="M43.4099,-213.1052C45.0647,-179.9268 52.4425,-69.3704 78,-47.5317 176.7059,36.8119 350.2904,-12.8323 418.6619,-37.3227"/>
<polygon fill="#000000" fill-opacity="0.200000" stroke="#000000" stroke-opacity="0.200000" points="418.2035,-39.3904 424.56,-39.467 419.6386,-35.4432 418.2035,-39.3904"/>
</g>
<!-- node_modules/express -->
<g id="node12" class="node">
<title>node_modules/express</title>
<g id="a_node12"><a xlink:href="https://www.npmjs.com/package/express" xlink:title="express">
<polygon fill="#c40b0a" fill-opacity="0.101961" stroke="#000000" points="474.5,-117.5317 422.5,-117.5317 420.5,-115.5317 420.5,-99.5317 472.5,-99.5317 474.5,-101.5317 474.5,-117.5317"/>
<polyline fill="none" stroke="#000000" points="472.5,-115.5317 420.5,-115.5317 "/>
<polyline fill="none" stroke="#000000" points="472.5,-115.5317 472.5,-99.5317 "/>
<polyline fill="none" stroke="#000000" points="472.5,-115.5317 474.5,-117.5317 "/>
<text text-anchor="start" x="430" y="-106.3317" font-family="Helvetica,sans-Serif" font-size="9.00" fill="#c40b0a">express</text>
</a>
</g>
</g>
<!-- api/index.js&#45;&gt;node_modules/express -->
<g id="edge9" class="edge">
<title>api/index.js&#45;&gt;node_modules/express</title>
<path fill="none" stroke="#000000" stroke-opacity="0.200000" d="M47.783,-213.4282C62.5099,-186.5332 110.1842,-107.5677 176,-79.5317 220.1603,-60.7204 350.4843,-55.4392 392,-79.5317 398.1983,-83.1287 394.422,-89.0323 400,-93.5317 404.1607,-96.8877 409.0814,-99.4976 414.1525,-101.526"/>
<polygon fill="#000000" fill-opacity="0.200000" stroke="#000000" stroke-opacity="0.200000" points="413.7814,-103.6226 420.1382,-103.65 415.1859,-99.6644 413.7814,-103.6226"/>
</g>
<!-- api/index.js&#45;&gt;node_modules/mongoose -->
<g id="edge10" class="edge">
<title>api/index.js&#45;&gt;node_modules/mongoose</title>
<path fill="none" stroke="#000000" stroke-opacity="0.200000" d="M68.5313,-213.4895C71.7066,-212.4503 74.9191,-211.4394 78,-210.5317 171.9896,-182.838 195.6369,-175.284 292,-157.5317 331.8701,-150.1866 378.0309,-144.9534 409.6388,-141.863"/>
<polygon fill="#000000" fill-opacity="0.200000" stroke="#000000" stroke-opacity="0.200000" points="409.9891,-143.9391 415.7601,-141.2735 409.5864,-139.7584 409.9891,-143.9391"/>
</g>
<!-- api/routes/auth.route.js&#45;&gt;api/controllers/auth.controller.js -->
<g id="edge12" class="edge">
<title>api/routes/auth.route.js&#45;&gt;api/controllers/auth.controller.js</title>
<path fill="none" stroke="#000000" stroke-width="2" stroke-opacity="0.200000" d="M160.1231,-260.5317C165.7083,-260.5317 171.557,-260.5317 177.3915,-260.5317"/>
<polygon fill="#000000" fill-opacity="0.200000" stroke="#000000" stroke-width="2" stroke-opacity="0.200000" points="177.704,-262.6317 183.7039,-260.5317 177.7039,-258.4317 177.704,-262.6317"/>
</g>
<!-- api/routes/auth.route.js&#45;&gt;node_modules/express -->
<g id="edge13" class="edge">
<title>api/routes/auth.route.js&#45;&gt;node_modules/express</title>
<path fill="none" stroke="#000000" stroke-opacity="0.200000" d="M160.3199,-251.7259C163.166,-250.0145 165.7865,-247.9711 168,-245.5317 178.7226,-233.7146 166.0987,-223.0449 176,-210.5317 235.2358,-135.6692 355.6441,-115.7472 414.1276,-110.449"/>
<polygon fill="#000000" fill-opacity="0.200000" stroke="#000000" stroke-opacity="0.200000" points="414.4677,-112.5278 420.2679,-109.9262 414.1113,-108.3429 414.4677,-112.5278"/>
</g>
<!-- api/routes/user.route.js&#45;&gt;api/controllers/user.controller.js -->
<g id="edge14" class="edge">
<title>api/routes/user.route.js&#45;&gt;api/controllers/user.controller.js</title>
<path fill="none" stroke="#000000" stroke-width="2" stroke-opacity="0.200000" d="M159.2253,-230.5317C165.5382,-230.5317 172.2106,-230.5317 178.8351,-230.5317"/>
<polygon fill="#000000" fill-opacity="0.200000" stroke="#000000" stroke-width="2" stroke-opacity="0.200000" points="178.8938,-232.6318 184.8937,-230.5317 178.8937,-228.4318 178.8938,-232.6318"/>
</g>
<!-- api/routes/user.route.js&#45;&gt;node_modules/express -->
<g id="edge15" class="edge">
<title>api/routes/user.route.js&#45;&gt;node_modules/express</title>
<path fill="none" stroke="#000000" stroke-opacity="0.200000" d="M123.8259,-221.1932C126.465,-197.6939 136.9758,-136.1621 176,-110.5317 249.4077,-62.3186 359.7772,-83.226 414.4216,-98.1796"/>
<polygon fill="#000000" fill-opacity="0.200000" stroke="#000000" stroke-opacity="0.200000" points="414.1419,-100.2819 420.4859,-99.8776 415.2744,-96.2375 414.1419,-100.2819"/>
</g>
</g>
</svg>
